<svg width="48" height="48" viewBox="0 0 48 48" fill="none" xmlns="http://www.w3.org/2000/svg">
<rect width="48" height="48" rx="24" fill="#9EFFA8"/>
<path fill-rule="evenodd" clip-rule="evenodd" d="M37.4539 33.808C37.1058 32.9273 36.4935 32.5091 35.3433 31.7236L35.2969 31.6919C34.4152 31.0873 33.8047 30.2666 33.6961 28.5968C33.6309 27.5497 33.7009 26.6964 33.7788 25.7456C33.8627 24.7223 33.9559 23.5864 33.8997 21.9746C33.8183 19.5849 33.0044 17.771 32.5025 16.7057C31.9056 15.4676 31.797 14.5751 31.7563 13.1355C31.734 12.4152 31.7404 11.2076 31.7461 10.1155V10.1154V10.1154V10.1153C31.7508 9.22111 31.7551 8.40438 31.7427 7.9961C31.7156 7.08916 31.3629 6.49892 30.7796 6.19661C30.0607 5.83671 29.301 5.95188 28.6499 6.70047C28.053 7.39147 26.9813 8.60073 26.2489 9.32053C25.2857 10.2563 24.6617 10.4722 23.8071 10.4722C22.9524 10.4722 22.342 10.2707 21.3653 9.32053C20.6327 8.61513 19.5475 7.39147 18.9642 6.70047C18.3131 5.96627 17.5534 5.8511 16.8344 6.19661C16.2376 6.48453 15.8984 7.07476 15.8577 7.9961C15.8455 8.41113 15.8498 9.23219 15.8545 10.129V10.129V10.129V10.1291V10.1291C15.8602 11.2232 15.8665 12.43 15.8442 13.1499C15.8035 14.5895 15.6949 15.4676 15.0981 16.7201C14.5962 17.7854 13.7822 19.5849 13.7008 21.989C13.6446 23.6008 13.7378 24.7367 13.8217 25.76C13.8997 26.7108 13.9697 27.5641 13.9043 28.6112C13.7958 30.281 13.1853 31.1017 12.3036 31.7063L12.1873 31.7866C11.0943 32.5411 10.4875 32.9601 10.1467 33.8224C9.90253 34.4559 9.90253 35.3628 10.6215 35.7515C11.0827 35.9963 11.6389 35.9531 12.2086 35.7083C12.3218 35.6611 12.4342 35.6072 12.5459 35.5538H12.5459H12.546H12.546C12.876 35.3958 13.2002 35.2406 13.5245 35.262C13.8636 35.2764 14.1349 35.478 14.1756 36.0539C14.2299 36.6585 14.4876 36.9032 14.9082 36.9032C15.2473 36.9032 15.5593 36.6585 15.8035 35.9963C15.8491 35.8715 15.8904 35.7495 15.9298 35.6331L15.9299 35.633L15.9299 35.6327H15.93C16.1134 35.091 16.2554 34.6719 16.5903 34.6719C17.0244 34.6863 17.1193 35.1758 17.1465 35.8667C17.1871 36.86 16.8344 37.6231 16.1426 38.2996C15.3422 39.077 14.7454 39.8112 14.9624 40.7757C15.1116 41.4524 15.817 41.8986 16.9294 41.9562C18.0689 41.9994 19.9138 42.0138 21.1889 41.985C22.3827 41.9562 23.0745 41.4092 23.2102 40.6749C23.2962 40.2411 23.2117 39.9521 23.1309 39.676C23.0589 39.4301 22.9899 39.1943 23.0474 38.8755C23.1152 38.5012 23.4408 38.3428 23.7935 38.3428C24.1462 38.3428 24.4853 38.5012 24.5396 38.8755C24.5897 39.188 24.5211 39.4206 24.4502 39.6614C24.3677 39.9419 24.2819 40.2333 24.3767 40.6749C24.526 41.3948 25.2043 41.9418 26.398 41.985C27.6732 42.0138 29.5181 41.9994 30.644 41.9418C31.7563 41.8842 32.4618 41.438 32.611 40.7613C32.828 39.7968 32.2311 39.0771 31.4308 38.2852C30.7389 37.6087 30.3862 36.8456 30.4269 35.8523C30.4541 35.1614 30.5626 34.6719 30.9831 34.6575C31.3207 34.6455 31.4624 35.0694 31.6479 35.6252V35.6253L31.648 35.6255V35.6258C31.6861 35.7397 31.7261 35.8593 31.7699 35.9819C32.0141 36.6441 32.3261 36.8888 32.6653 36.8888C33.0858 36.8888 33.3435 36.6297 33.3978 36.0395C33.452 35.4492 33.7233 35.262 34.0489 35.2476C34.3732 35.2262 34.6975 35.3814 35.0273 35.5394C35.1391 35.5928 35.2515 35.6467 35.3647 35.694C35.9481 35.9387 36.4907 35.9819 36.9519 35.7371C37.698 35.3484 37.698 34.4415 37.4539 33.808V33.808ZM18.6116 18.5772C19.1271 18.5772 19.5341 18.1309 19.5341 17.5982C19.5341 17.0512 19.1136 16.6193 18.6116 16.6193C18.0962 16.6193 17.6892 17.0656 17.6892 17.5982C17.6756 18.1309 18.0962 18.5772 18.6116 18.5772ZM29.9254 17.5982C29.9254 18.1309 29.5184 18.5772 29.0029 18.5772C28.4874 18.5772 28.0669 18.1309 28.0804 17.5982C28.0804 17.0656 28.4874 16.6193 29.0029 16.6193C29.5048 16.6193 29.9254 17.0512 29.9254 17.5982ZM23.7937 18.4908C25.9642 18.4908 27.5242 19.009 29.0164 20.3622C30.0474 21.298 30.7256 23.1551 29.9117 24.5371C29.5184 25.2425 28.7586 25.8039 27.8498 25.8903C26.6424 26.0055 25.8963 25.5448 25.4216 24.9833C24.9603 24.4507 24.472 23.9468 23.7801 23.9468C23.0883 23.9468 22.5999 24.4507 22.1387 24.9833C21.6639 25.5448 20.9043 26.0055 19.7105 25.8903C18.8152 25.8039 18.042 25.2425 17.6486 24.5371C16.8754 23.1407 17.5401 21.2836 18.571 20.3622C20.0768 19.009 21.6232 18.4908 23.7937 18.4908ZM21.6637 20.7222C21.6637 19.7433 22.5998 18.9803 23.8071 18.9803C25.0143 18.9803 25.9503 19.7433 25.9503 20.7222C25.9503 21.7011 25.0143 22.464 23.8071 22.464C22.5998 22.464 21.6637 21.7011 21.6637 20.7222ZM19.5071 32.4693C19.5071 29.9499 21.4334 27.9057 23.8074 27.9057C26.1677 27.9057 28.1076 29.9499 28.1076 32.4693C28.1076 34.9886 26.1813 37.0328 23.8074 37.0328C21.4334 37.0328 19.5071 34.9886 19.5071 32.4693Z" fill="#34AC47"/>
</svg>
